{
    "asset" : {
        "generator" : "Khronos glTF Blender I/O v1.5.17",
        "version" : "2.0"
    },
    "scene" : 0,
    "scenes" : [
        {
            "name" : "Scene",
            "nodes" : [
                0,
                1,
                2,
                3,
                4,
                5,
                6,
                7
            ]
        }
    ],
    "nodes" : [
        {
            "name" : "Light",
            "rotation" : [
                0.4253655672073364,
                0.6279345750808716,
                -0.2975957989692688,
                0.5798267722129822
            ],
            "translation" : [
                7.958700180053711,
                7.011199951171875,
                3.079200029373169
            ]
        },
        {
            "name" : "Camera",
            "rotation" : [
                0.6807709336280823,
                -0.1545570343732834,
                0.150300070643425,
                0.7000521421432495
            ],
            "translation" : [
                -4.901400089263916,
                2.217900037765503,
                8.626299858093262
            ]
        },
        {
            "mesh" : 0,
            "name" : "floor",
            "scale" : [
                5,
                1,
                5
            ]
        },
        {
            "mesh" : 1,
            "name" : "wall",
            "translation" : [
                0,
                0.9945399761199951,
                -3.8382999897003174
            ]
        },
        {
            "mesh" : 2,
            "name" : "Cube.001",
            "translation" : [
                0,
                0.9945399761199951,
                -3.8382999897003174
            ]
        },
        {
            "mesh" : 3,
            "name" : "Cube.002",
            "scale" : [
                0.5,
                0.6000000238418579,
                0.5
            ],
            "translation" : [
                0,
                0.5990200042724609,
                0
            ]
        },
        {
            "mesh" : 4,
            "name" : "firstTry",
            "rotation" : [
                -0.031359899789094925,
                0,
                0,
                0.999508261680603
            ],
            "scale" : [
                0.10976150631904602,
                0.11344154924154282,
                0.10585211962461472
            ],
            "translation" : [
                0.02604253590106964,
                1.2126619815826416,
                0.23919889330863953
            ]
        },
        {
            "name" : "Spot",
            "rotation" : [
                0.493182897567749,
                0,
                0,
                0.8699256181716919
            ],
            "translation" : [
                -0.040192000567913055,
                4.760300159454346,
                3.85509991645813
            ]
        }
    ],
    "materials" : [
        {
            "doubleSided" : true,
            "name" : "flat_floor",
            "normalTexture" : {
                "index" : 0,
                "scale" : 5
            },
            "pbrMetallicRoughness" : {
                "baseColorTexture" : {
                    "index" : 1
                },
                "metallicFactor" : 0,
                "metallicRoughnessTexture" : {
                    "index" : 2
                }
            }
        },
        {
            "doubleSided" : true,
            "name" : "brick_wall",
            "normalTexture" : {
                "index" : 3
            },
            "pbrMetallicRoughness" : {
                "baseColorTexture" : {
                    "index" : 4
                },
                "metallicFactor" : 0,
                "metallicRoughnessTexture" : {
                    "index" : 5
                }
            }
        },
        {
            "doubleSided" : true,
            "name" : "Material.001",
            "normalTexture" : {
                "index" : 6,
                "scale" : 10
            },
            "pbrMetallicRoughness" : {
                "baseColorTexture" : {
                    "index" : 7
                },
                "metallicFactor" : 0,
                "metallicRoughnessTexture" : {
                    "index" : 8
                }
            }
        },
        {
            "doubleSided" : true,
            "name" : "firstTry",
            "pbrMetallicRoughness" : {
                "baseColorTexture" : {
                    "index" : 9
                },
                "metallicFactor" : 0.5818179845809937
            }
        }
    ],
    "meshes" : [
        {
            "name" : "Plane",
            "primitives" : [
                {
                    "attributes" : {
                        "POSITION" : 0,
                        "NORMAL" : 1,
                        "TEXCOORD_0" : 2
                    },
                    "indices" : 3,
                    "material" : 0
                }
            ]
        },
        {
            "name" : "Cube.001",
            "primitives" : [
                {
                    "attributes" : {
                        "POSITION" : 4,
                        "NORMAL" : 5,
                        "TEXCOORD_0" : 6
                    },
                    "indices" : 7,
                    "material" : 1
                }
            ]
        },
        {
            "name" : "Cube.002",
            "primitives" : [
                {
                    "attributes" : {
                        "POSITION" : 8,
                        "NORMAL" : 9,
                        "TEXCOORD_0" : 10
                    },
                    "indices" : 11
                }
            ]
        },
        {
            "name" : "Cube.003",
            "primitives" : [
                {
                    "attributes" : {
                        "POSITION" : 12,
                        "NORMAL" : 13,
                        "TEXCOORD_0" : 14
                    },
                    "indices" : 15,
                    "material" : 2
                }
            ]
        },
        {
            "name" : "firstTry",
            "primitives" : [
                {
                    "attributes" : {
                        "POSITION" : 16,
                        "NORMAL" : 17,
                        "TEXCOORD_0" : 18
                    },
                    "indices" : 19,
                    "material" : 3
                }
            ]
        }
    ],
    "textures" : [
        {
            "sampler" : 0,
            "source" : 0
        },
        {
            "sampler" : 0,
            "source" : 1
        },
        {
            "sampler" : 0,
            "source" : 2
        },
        {
            "sampler" : 0,
            "source" : 3
        },
        {
            "sampler" : 0,
            "source" : 4
        },
        {
            "sampler" : 0,
            "source" : 5
        },
        {
            "sampler" : 0,
            "source" : 6
        },
        {
            "sampler" : 0,
            "source" : 7
        },
        {
            "sampler" : 0,
            "source" : 2
        },
        {
            "sampler" : 0,
            "source" : 8
        }
    ],
    "images" : [
        {
            "mimeType" : "image/png",
            "name" : "TexturesCom_Concrete_Polished_1K_normal",
            "uri" : "TexturesCom_Concrete_Polished_1K_normal.png"
        },
        {
            "mimeType" : "image/png",
            "name" : "TexturesCom_Concrete_Polished_1K_albedo",
            "uri" : "TexturesCom_Concrete_Polished_1K_albedo.png"
        },
        {
            "mimeType" : "image/png",
            "name" : "TexturesCom_Concrete_Polished_1K_roughness",
            "uri" : "TexturesCom_Concrete_Polished_1K_roughness.png"
        },
        {
            "mimeType" : "image/png",
            "name" : "TexturesCom_Bricks_Rough_2x2_1K_normal",
            "uri" : "TexturesCom_Bricks_Rough_2x2_1K_normal.png"
        },
        {
            "mimeType" : "image/png",
            "name" : "TexturesCom_Bricks_Rough_2x2_1K_albedo",
            "uri" : "TexturesCom_Bricks_Rough_2x2_1K_albedo.png"
        },
        {
            "mimeType" : "image/png",
            "name" : "TexturesCom_Bricks_Rough_2x2_1K_roughness",
            "uri" : "TexturesCom_Bricks_Rough_2x2_1K_roughness.png"
        },
        {
            "mimeType" : "image/png",
            "name" : "TexturesCom_Concrete_WallCast_512_normal",
            "uri" : "TexturesCom_Concrete_WallCast_512_normal.png"
        },
        {
            "mimeType" : "image/png",
            "name" : "TexturesCom_Concrete_WallCast_512_albedo",
            "uri" : "TexturesCom_Concrete_WallCast_512_albedo.png"
        },
        {
            "mimeType" : "image/jpeg",
            "name" : "firstTry",
            "uri" : "firstTry.jpg"
        }
    ],
    "accessors" : [
        {
            "bufferView" : 0,
            "componentType" : 5126,
            "count" : 4,
            "max" : [
                1,
                0,
                1
            ],
            "min" : [
                -1,
                0,
                -1
            ],
            "type" : "VEC3"
        },
        {
            "bufferView" : 1,
            "componentType" : 5126,
            "count" : 4,
            "type" : "VEC3"
        },
        {
            "bufferView" : 2,
            "componentType" : 5126,
            "count" : 4,
            "type" : "VEC2"
        },
        {
            "bufferView" : 3,
            "componentType" : 5123,
            "count" : 6,
            "type" : "SCALAR"
        },
        {
            "bufferView" : 4,
            "componentType" : 5126,
            "count" : 60,
            "max" : [
                5.6539998054504395,
                4,
                8.446722030639648
            ],
            "min" : [
                -4.925619602203369,
                -1,
                -1
            ],
            "type" : "VEC3"
        },
        {
            "bufferView" : 5,
            "componentType" : 5126,
            "count" : 60,
            "type" : "VEC3"
        },
        {
            "bufferView" : 6,
            "componentType" : 5126,
            "count" : 60,
            "type" : "VEC2"
        },
        {
            "bufferView" : 7,
            "componentType" : 5123,
            "count" : 120,
            "type" : "SCALAR"
        },
        {
            "bufferView" : 8,
            "componentType" : 5126,
            "count" : 128,
            "max" : [
                4.683595180511475,
                4.276042938232422,
                8.446722030639648
            ],
            "min" : [
                -4.908247470855713,
                4,
                -0.8999999761581421
            ],
            "type" : "VEC3"
        },
        {
            "bufferView" : 9,
            "componentType" : 5126,
            "count" : 128,
            "type" : "VEC3"
        },
        {
            "bufferView" : 10,
            "componentType" : 5126,
            "count" : 128,
            "type" : "VEC2"
        },
        {
            "bufferView" : 11,
            "componentType" : 5123,
            "count" : 204,
            "type" : "SCALAR"
        },
        {
            "bufferView" : 12,
            "componentType" : 5126,
            "count" : 14,
            "max" : [
                1,
                1,
                1
            ],
            "min" : [
                -1,
                -1,
                -1
            ],
            "type" : "VEC3"
        },
        {
            "bufferView" : 13,
            "componentType" : 5126,
            "count" : 14,
            "type" : "VEC3"
        },
        {
            "bufferView" : 14,
            "componentType" : 5126,
            "count" : 14,
            "type" : "VEC2"
        },
        {
            "bufferView" : 15,
            "componentType" : 5123,
            "count" : 36,
            "type" : "SCALAR"
        },
        {
            "bufferView" : 16,
            "componentType" : 5126,
            "count" : 56997,
            "max" : [
                4.06968879699707,
                8.734236717224121,
                0.4685518741607666
            ],
            "min" : [
                -3.2188408374786377,
                -0.08087517321109772,
                -4.255019187927246
            ],
            "type" : "VEC3"
        },
        {
            "bufferView" : 17,
            "componentType" : 5126,
            "count" : 56997,
            "type" : "VEC3"
        },
        {
            "bufferView" : 18,
            "componentType" : 5126,
            "count" : 56997,
            "type" : "VEC2"
        },
        {
            "bufferView" : 19,
            "componentType" : 5123,
            "count" : 276924,
            "type" : "SCALAR"
        }
    ],
    "bufferViews" : [
        {
            "buffer" : 0,
            "byteLength" : 48,
            "byteOffset" : 0
        },
        {
            "buffer" : 0,
            "byteLength" : 48,
            "byteOffset" : 48
        },
        {
            "buffer" : 0,
            "byteLength" : 32,
            "byteOffset" : 96
        },
        {
            "buffer" : 0,
            "byteLength" : 12,
            "byteOffset" : 128
        },
        {
            "buffer" : 0,
            "byteLength" : 720,
            "byteOffset" : 140
        },
        {
            "buffer" : 0,
            "byteLength" : 720,
            "byteOffset" : 860
        },
        {
            "buffer" : 0,
            "byteLength" : 480,
            "byteOffset" : 1580
        },
        {
            "buffer" : 0,
            "byteLength" : 240,
            "byteOffset" : 2060
        },
        {
            "buffer" : 0,
            "byteLength" : 1536,
            "byteOffset" : 2300
        },
        {
            "buffer" : 0,
            "byteLength" : 1536,
            "byteOffset" : 3836
        },
        {
            "buffer" : 0,
            "byteLength" : 1024,
            "byteOffset" : 5372
        },
        {
            "buffer" : 0,
            "byteLength" : 408,
            "byteOffset" : 6396
        },
        {
            "buffer" : 0,
            "byteLength" : 168,
            "byteOffset" : 6804
        },
        {
            "buffer" : 0,
            "byteLength" : 168,
            "byteOffset" : 6972
        },
        {
            "buffer" : 0,
            "byteLength" : 112,
            "byteOffset" : 7140
        },
        {
            "buffer" : 0,
            "byteLength" : 72,
            "byteOffset" : 7252
        },
        {
            "buffer" : 0,
            "byteLength" : 683964,
            "byteOffset" : 7324
        },
        {
            "buffer" : 0,
            "byteLength" : 683964,
            "byteOffset" : 691288
        },
        {
            "buffer" : 0,
            "byteLength" : 455976,
            "byteOffset" : 1375252
        },
        {
            "buffer" : 0,
            "byteLength" : 553848,
            "byteOffset" : 1831228
        }
    ],
    "samplers" : [
        {
            "magFilter" : 9729,
            "minFilter" : 9987
        }
    ],
    "buffers" : [
        {
            "byteLength" : 2385076,
            "uri" : "aaaaa6.bin"
        }
    ]
}
